<?xml version="1.0" encoding="UTF-8" standalone="no"?>
<!-- Created with Inkscape (http://www.inkscape.org/) -->
<svg id="svg2" xmlns:rdf="http://www.w3.org/1999/02/22-rdf-syntax-ns#" xmlns="http://www.w3.org/2000/svg" viewBox="0 0 93 34" version="1.1" xmlns:cc="http://creativecommons.org/ns#" xmlns:dc="http://purl.org/dc/elements/1.1/">
 <metadata id="metadata8">
  <rdf:RDF>
   <cc:Work rdf:about="">
    <dc:format>image/svg+xml</dc:format>
    <dc:type rdf:resource="http://purl.org/dc/dcmitype/StillImage"/>
    <dc:title/>
   </cc:Work>
  </rdf:RDF>
 </metadata>
 <path id="path2987" fill="#000" d="M46.8,33.1c-1.7-0.9-5.5-2.8-6.8-3.5-3.7-2.1-11.4-5.5-12.2-5.5l0.04,4.15c0.04,4.03,0.04,4.16-0.119,4.31-0.141,0.14-0.224,0.153-0.671,0.09-0.716-0.09-4.53-0.06-6.26,0.05-1.89-0.02-3.84,0.177-5.54-0.573l-0.03-2.55c-0.03-2.58-0.153-5.1-0.304-6.23-0.614-5.91-0.229-11.8-0.922-17.8-0.112-0.915-0.02-3.28,0.135-3.66,0.187-0.448,0.318-0.475,2.4-0.51,1.54-0.026,1.96-0.01,2.2,0.09,1.46,1.05,3,1.98,4.45,3.22,0.373,0.321,1.77,1.19,3.53,2.18,2.74,1.88,5.6,3.78,8.28,5.71,0.573,0.418,0.988,0.576,1.11,0.427,0.29-0.35,0.483-4.03,0.358-6.85-0.101-2.2-0.07-3.83,0.07-4.46,0.16-0.693,0.02-0.662,2.84-0.664,2.73-0.18,5.74,0.055,8.42-0.363,0.733-0.118,1.09-0.1,1.22,0.063,0.04,0.0511,0.09,1.99,0.122,4.32,0.343,8.3,0.01,17.1-0.05,25.1l-0.02,3.21c-0.159,0.172-0.367,0.407-0.601,0.41-0.117,0-0.847-0.309-1.62-0.684zm24.8,0c-0.131-0.09-0.14-0.895-0.132-11.7,0-6.35,0.01-11.8,0.02-12.1,0-0.319,0-2.07-0.02-3.89-0.03-3.47,0-3.93,0.32-4.1,0.56-0.299,6.85,0.148,8.71,0.619,4.34,1.62,6.99,4.14,9.09,7.25,1.76,2.62,2.39,4.01,2.75,6.08,0.215,1.29,0.174,3.12-0.103,4.13-0.372,1.52-1.25,2.91-1.96,4.16-1.4,2.42-2.04,3.22-3.95,4.98-3.23,3.07-7.46,3.98-11.1,4.34-0.717-0.08-3.14,0.582-3.63,0.225zm9.2-13.7c1.4-1.06,2.32-2.93,2.24-4.57,0.423-2.23-4.42-4.38-4.25-3.41,0.206,3.08-0.08,5.52,0.111,8.75,0.716,0.01,1.38-0.387,1.9-0.776zm-80.8,4.6c0.0844-19.9,0.0974-21.3,0.213-21.5,0.108-0.22,0.135-0.23,0.94-0.28,2.51-0.05,5.32-0.27,7.53-0.31,3.6-0.08,3.6-0.09,3.8,0.39,0.06,0.156,0.05,0.911-0.02,2.54-0.07,1.62-0.105,6-0.109,14.5v12.2c-0.179,0.373-0.44,0.745-0.756,0.95-0.662,0.419-0.968,0.449-3.76,0.371-2.13-0.274-5.84,0.43-7.43-0.184-0.443-0.199-0.427,0.01-0.391-8.59zm51.7,8c-0.1-0.4-0.3-2.6-0.4-6.5-0.1-4.2-0.2-6.9-0.3-8.4-0.2-2-0.3-3.4-0.5-6.9-0.2-4.79-0.3-8.23-0.3-8.47,0.08-0.413,0.283-0.454,2.53-0.523,2.08,0.017,4.46-0.355,6.36-0.163,2.4,0.306,5.09-0.083,7.19,0.454,1.5,0.387,3.03,1.26,3.54,2.02,0.842,1.25,1.24,3.16,1.14,5.52-0.127,3.14-0.589,4.84-1.78,6.53-1.6,2.28-2.24,2.96-3.34,3.6-1.09,0.623-1.75,0.789-4.51,1.12-0.517,0.06-0.977,0.153-1.02,0.2-0.08,0.08-0.03,1.93,0.231,9.09,0,1.17,0.02,2.07-0.468,3.01h-7.92c-0.174-0.177-0.346-0.372-0.435-0.6zm10.2-20.1c0.875-0.985,1.08-2.81,0.592-3.8-0.548-0.793-2.81-1.42-3.45-0.594,0,1.26,0,4.37,0.415,5.58,0.683,0.142,1.74-0.564,2.44-1.19z"/>
</svg>
